<?xml version="1.0" encoding="UTF-8"?>
<svg xmlns="http://www.w3.org/2000/svg" viewBox="0 0 400 400" width="400" height="400">
  <defs>
    <style>
      .icon { fill: currentColor; stroke: none; }
      .play-icon { fill: #4CAF50; }
      .pause-icon { fill: #FF9800; }
      .stop-icon { fill: #F44336; }
      .volume-icon { fill: #2196F3; }
    </style>
  </defs>
  
  <!-- Play Icon -->
  <g id="play" transform="translate(50, 50)">
    <rect width="80" height="80" fill="none" stroke="#ddd" stroke-dasharray="2,2"/>
    <polygon class="icon play-icon" points="20,20 20,60 60,40"/>
    <text x="40" y="75" text-anchor="middle" font-family="monospace" font-size="8">PLAY</text>
  </g>
  
  <!-- Pause Icon -->
  <g id="pause" transform="translate(150, 50)">
    <rect width="80" height="80" fill="none" stroke="#ddd" stroke-dasharray="2,2"/>
    <rect class="icon pause-icon" x="25" y="20" width="12" height="40"/>
    <rect class="icon pause-icon" x="43" y="20" width="12" height="40"/>
    <text x="40" y="75" text-anchor="middle" font-family="monospace" font-size="8">PAUSE</text>
  </g>
  
  <!-- Stop Icon -->
  <g id="stop" transform="translate(250, 50)">
    <rect width="80" height="80" fill="none" stroke="#ddd" stroke-dasharray="2,2"/>
    <rect class="icon stop-icon" x="20" y="20" width="40" height="40"/>
    <text x="40" y="75" text-anchor="middle" font-family="monospace" font-size="8">STOP</text>
  </g>
  
  <!-- Volume Icon -->
  <g id="volume" transform="translate(50, 150)">
    <rect width="80" height="80" fill="none" stroke="#ddd" stroke-dasharray="2,2"/>
    <polygon class="icon volume-icon" points="20,30 20,50 30,50 45,60 45,20 30,30"/>
    <path class="icon volume-icon" d="M50,25 Q55,30 55,40 Q55,50 50,55" fill="none" stroke="#2196F3" stroke-width="2"/>
    <text x="40" y="75" text-anchor="middle" font-family="monospace" font-size="8">VOLUME</text>
  </g>
  
  <!-- Image Icon -->
  <g id="image" transform="translate(150, 150)">
    <rect width="80" height="80" fill="none" stroke="#ddd" stroke-dasharray="2,2"/>
    <rect class="icon" x="20" y="25" width="40" height="30" fill="none" stroke="#9C27B0" stroke-width="2"/>
    <circle class="icon" cx="30" cy="35" r="4" fill="#9C27B0"/>
    <polygon class="icon" points="25,50 35,40 45,45 55,35 55,50" fill="#9C27B0"/>
    <text x="40" y="75" text-anchor="middle" font-family="monospace" font-size="8">IMAGE</text>
  </g>
  
  <!-- Video Icon -->
  <g id="video" transform="translate(250, 150)">
    <rect width="80" height="80" fill="none" stroke="#ddd" stroke-dasharray="2,2"/>
    <rect class="icon" x="15" y="25" width="35" height="25" fill="none" stroke="#FF5722" stroke-width="2"/>
    <polygon class="icon" points="50,30 50,45 65,37.5" fill="#FF5722"/>
    <text x="40" y="75" text-anchor="middle" font-family="monospace" font-size="8">VIDEO</text>
  </g>
  
  <!-- Font Icon -->
  <g id="font" transform="translate(50, 250)">
    <rect width="80" height="80" fill="none" stroke="#ddd" stroke-dasharray="2,2"/>
    <text class="icon" x="40" y="45" text-anchor="middle" font-family="serif" font-size="24" fill="#795548">A</text>
    <text class="icon" x="40" y="55" text-anchor="middle" font-family="monospace" font-size="8" fill="#795548">a</text>
    <text x="40" y="75" text-anchor="middle" font-family="monospace" font-size="8">FONT</text>
  </g>
  
  <!-- Data Icon -->
  <g id="data" transform="translate(150, 250)">
    <rect width="80" height="80" fill="none" stroke="#ddd" stroke-dasharray="2,2"/>
    <rect class="icon" x="25" y="25" width="30" height="4" fill="#607D8B"/>
    <rect class="icon" x="25" y="33" width="25" height="4" fill="#607D8B"/>
    <rect class="icon" x="25" y="41" width="35" height="4" fill="#607D8B"/>
    <rect class="icon" x="25" y="49" width="20" height="4" fill="#607D8B"/>
    <text x="40" y="75" text-anchor="middle" font-family="monospace" font-size="8">DATA</text>
  </g>
  
  <!-- Settings Icon -->
  <g id="settings" transform="translate(250, 250)">
    <rect width="80" height="80" fill="none" stroke="#ddd" stroke-dasharray="2,2"/>
    <circle class="icon" cx="40" cy="40" r="8" fill="none" stroke="#455A64" stroke-width="2"/>
    <circle class="icon" cx="40" cy="40" r="4" fill="#455A64"/>
    <g stroke="#455A64" stroke-width="2">
      <line x1="40" y1="20" x2="40" y2="26"/>
      <line x1="40" y1="54" x2="40" y2="60"/>
      <line x1="20" y1="40" x2="26" y2="40"/>
      <line x1="54" y1="40" x2="60" y2="40"/>
    </g>
    <text x="40" y="75" text-anchor="middle" font-family="monospace" font-size="8">CONFIG</text>
  </g>
</svg>